<svg width="180" height="55" viewBox="0 0 180 55" fill="none" xmlns="http://www.w3.org/2000/svg">
<path d="M155.943 54.0834C158.626 54.0834 160.801 51.9817 160.801 49.3893C160.801 46.7968 158.626 44.6951 155.943 44.6951C153.26 44.6951 151.085 46.7968 151.085 49.3893C151.085 51.9817 153.26 54.0834 155.943 54.0834Z" fill="#078193"/>
<path d="M136.606 54.6272C139.289 54.6272 141.464 52.5256 141.464 49.9331C141.464 47.3406 139.289 45.239 136.606 45.239C133.923 45.239 131.748 47.3406 131.748 49.9331C131.748 52.5256 133.923 54.6272 136.606 54.6272Z" fill="#078193"/>
<path d="M158.238 4.17397C158.317 4.54317 149.657 5.57074 138.631 10.2158C131.887 13.0566 126.715 16.2157 123.317 18.511L126.126 12.7893L126.231 12.571C128.834 11.3816 132.57 9.80837 137.201 8.32065C148.456 4.70321 158.155 3.78294 158.238 4.17397Z" fill="#078193"/>
<path d="M126.124 12.7892L123.315 18.511L123.076 18.531C122.958 16.9978 122.775 15.3737 122.519 13.6731C122.154 11.267 121.685 9.04268 121.168 7.01662L121.19 7.15485L121.089 7.1694L109.65 4.8287L111.335 0.0527344L124.983 4.7123H125.007C125.011 4.74868 125.019 4.78505 125.022 4.82324L126.095 12.7783L126.122 12.7911L126.124 12.7892Z" fill="#078193"/>
<path d="M124.985 4.71052L111.337 0.0527708V0.0491333C112.875 0.520182 114.431 1.01488 116.007 1.53503C119.118 2.56261 122.111 3.62474 124.985 4.71052Z" fill="#078193"/>
<path d="M123.078 18.5292L121.192 7.15305L121.169 7.01483C121.685 9.04089 122.156 11.2652 122.521 13.6714C122.777 15.3719 122.958 16.9942 123.078 18.5292Z" fill="#078193"/>
<path d="M121.091 7.16949C119.135 7.17859 116.624 6.99308 113.812 6.27286C112.226 5.86729 110.829 5.3635 109.645 4.85608L109.654 4.8288L121.093 7.16949H121.091Z" fill="#078193"/>
<path d="M111.342 0.0491333V0.0528924L111.333 0.0510129C111.335 0.0510129 111.337 0.0491333 111.342 0.0491333Z" fill="#078193"/>
<path d="M111.341 0.0491055C111.341 0.0491055 111.337 0.0509242 111.333 0.0509242L111.181 0C111.233 0.0163685 111.286 0.032737 111.339 0.0491055H111.341Z" fill="#078193"/>
<path d="M111.337 0.0527708L109.652 4.82874L109.513 4.80146C109.556 4.82146 109.6 4.83783 109.643 4.85602L109.603 4.96696C109.506 4.81601 108.707 3.53199 109.285 2.02245C109.822 0.625668 111.12 0.12552 111.331 0.0491333H111.335L111.337 0.0527708Z" fill="#078193"/>
<path d="M109.652 4.82879L109.643 4.85608C109.6 4.83607 109.556 4.8197 109.513 4.80151L109.652 4.82879Z" fill="#078193"/>
<path d="M142.602 15.5156C139.546 16.4268 131.098 19.133 125.062 22.9123C122.082 24.7802 119.37 26.959 119.37 26.959C117.58 28.4012 116.054 29.8016 114.774 31.0766L114.521 30.9256C114.576 30.8601 114.659 30.7638 114.755 30.6492C116.699 28.363 121.574 22.9742 128.973 18.2982C132.459 16.0939 136.574 14.006 143.018 11.7654C150.272 9.23917 162.612 5.77996 179.861 4.69781L180 4.75783C177.557 9.98848 175.133 15.5574 172.784 21.4555C170.265 27.7847 168.072 33.8901 166.16 39.7191C158.535 38.7207 152.113 38.5224 147.345 38.5715C138.633 38.657 133.999 39.5736 132.15 39.9756C129.626 40.523 127.475 41.1596 125.792 41.7197L125.751 41.6052C128.625 40.252 131.975 38.9189 135.792 37.8168C136.939 37.4858 138.049 37.1984 139.122 36.9456C139.587 36.8365 140.044 36.7346 140.496 36.64C144.65 35.7598 148.221 35.416 151.121 35.1978C151.582 35.1632 152.028 35.1323 152.458 35.1014C152.576 35.0923 152.693 35.085 152.813 35.0778C156.612 34.8231 160.077 34.8195 163.12 34.9414C163.491 34.5267 164.041 33.8083 164.379 32.7825C164.62 32.0587 164.675 31.4149 164.677 30.9474C162.409 30.8947 159.185 30.902 155.334 31.2075C155.23 31.2166 155.125 31.2239 155.019 31.233C154.34 31.2912 153.619 31.3603 152.633 31.484C150.897 31.7022 148.339 32.086 143.728 32.8444C143.374 32.9026 143.028 32.9589 142.689 33.0171C141.987 33.1317 141.319 33.2427 140.679 33.35C134.52 34.3721 131.079 34.9777 128.504 35.6616C124.134 36.8219 120.595 38.1387 118.124 39.1572L118.071 39.0389C121.425 36.8619 125.538 34.5667 130.411 32.5352C132.723 31.5731 136.767 30.0217 142.058 28.7341C142.764 28.5631 143.493 28.3958 144.244 28.2357C144.33 28.2157 144.413 28.1994 144.5 28.183C148.288 27.3846 151.582 26.9754 154.016 26.7626C155.104 26.6662 156.021 26.6116 156.734 26.5752C156.952 26.5643 157.152 26.5552 157.331 26.548C160.833 26.4006 163.868 26.5116 166.265 26.6935V26.6771C166.648 25.8878 167.052 24.8602 167.321 23.6253C167.664 22.0593 167.677 20.6971 167.602 19.6877C163.901 19.735 160.534 19.946 157.543 20.2406C156.623 20.3297 155.74 20.4279 154.895 20.5316C153.363 20.7171 151.955 20.919 150.677 21.1227C148.735 21.4337 146.926 21.7738 145.224 22.1303C144.434 22.2958 143.666 22.4649 142.917 22.6395C140.001 23.3088 137.375 24.0236 134.853 24.7092C130.624 25.8568 127.05 26.9754 124.326 27.8774C131.367 24.4273 137.669 22.0994 142.649 20.5098C142.757 20.4752 142.868 20.4389 142.981 20.4025C143.624 20.197 144.326 19.9787 145.087 19.7459C147.692 18.9475 150.974 18.0254 154.957 17.2015C155.714 17.0433 156.499 16.8924 157.306 16.7432C158.023 16.6123 158.761 16.485 159.518 16.3631C163.781 15.6756 167.447 15.3555 170.231 15.1937V15.1591C170.485 14.6681 170.815 13.8915 170.945 12.8912C171.058 12.0164 170.975 11.2743 170.877 10.7596C165.492 11.0761 160.63 11.6726 156.331 12.3983C155.731 12.4983 155.142 12.6038 154.564 12.7075C150.504 13.4495 146.999 14.2952 144.084 15.0936C143.954 15.13 143.826 15.1646 143.698 15.2009C143.545 15.2428 143.165 15.3483 142.61 15.5174L142.602 15.5156Z" fill="#F7911E"/>
<path d="M157.541 20.2407C157.541 21.3174 157.474 22.4668 157.308 23.6726C157.169 24.7002 156.971 25.6696 156.734 26.5771C156.021 26.6135 155.104 26.6681 154.016 26.7645C154.212 25.8897 154.387 24.973 154.53 24.0127C154.711 22.7997 154.827 21.6339 154.891 20.5299C155.736 20.428 156.619 20.3298 157.54 20.2389L157.541 20.2407Z" fill="#F7911E"/>
<path d="M157.293 16.707L157.3 16.7415C156.493 16.8907 155.708 17.0416 154.951 17.1999L154.942 17.1635C154.893 15.4848 154.742 14.0062 154.569 12.7786L154.556 12.7076C155.134 12.604 155.723 12.4985 156.324 12.3984L156.352 12.5567C156.666 13.5442 157.046 14.961 157.293 16.707Z" fill="#F7911E"/>
<path d="M155.019 31.2349C154.219 32.8863 153.393 34.1376 152.802 34.9542L152.811 35.0779C152.693 35.0852 152.576 35.0924 152.456 35.1015C152.026 35.1306 151.582 35.1634 151.119 35.1979L151.11 35.087C151.594 34.0867 152.122 32.8809 152.631 31.4859C153.617 31.3622 154.338 31.2913 155.017 31.2349H155.019Z" fill="#F7911E"/>
<path d="M145.22 22.1285C145.233 23.2416 145.168 24.4365 144.989 25.6969C144.864 26.5699 144.697 27.401 144.499 28.1867C144.413 28.2031 144.33 28.2213 144.243 28.2394C143.492 28.3995 142.764 28.5686 142.058 28.7378C142.241 27.9357 142.404 27.0955 142.54 26.2207C142.734 24.9694 142.854 23.769 142.915 22.6378C143.664 22.4632 144.432 22.294 145.222 22.1285H145.22Z" fill="#F7911E"/>
<path d="M145.07 19.7078L145.081 19.7442C144.322 19.977 143.62 20.1971 142.975 20.4008L142.963 20.368C142.95 18.4966 142.794 16.8597 142.602 15.5157C143.159 15.3465 143.538 15.2429 143.69 15.1992C143.818 15.1628 143.946 15.1283 144.076 15.0919C144.424 16.1759 144.846 17.7563 145.07 19.706V19.7078Z" fill="#F7911E"/>
<path d="M142.689 33.0208C141.896 34.6013 141.07 35.8016 140.483 36.5873L140.496 36.6401C140.046 36.7346 139.589 36.8365 139.122 36.9456L139.118 36.9329C139.615 35.9417 140.157 34.745 140.677 33.3536C141.317 33.2463 141.987 33.1354 142.687 33.0208H142.689Z" fill="#F7911E"/>
<path d="M2.43911 36.8183C1.15355 35.4415 0.511719 33.4646 0.511719 30.8911V29.0742H5.40171V31.2548C5.40171 33.3154 6.29577 34.343 8.08199 34.343C8.9591 34.343 9.6254 34.0939 10.0809 33.5937C10.5345 33.0936 10.7623 32.2842 10.7623 31.1639C10.7623 29.8308 10.4479 28.6577 9.82115 27.6429C9.19438 26.628 8.03493 25.4095 6.34282 23.9854C4.21027 22.1685 2.72332 20.5262 1.87632 19.0567C1.02933 17.589 0.607712 15.9303 0.607712 14.0825C0.607712 11.569 1.26649 9.62294 2.58216 8.24435C3.89782 6.86758 5.81015 6.17828 8.31726 6.17828C10.8244 6.17828 12.6652 6.86758 13.9357 8.24435C15.2043 9.62294 15.8405 11.5981 15.8405 14.1716V15.4883H10.9505V13.8533C10.9505 12.7639 10.7303 11.9673 10.2917 11.4689C9.85315 10.9688 9.21132 10.7196 8.36432 10.7196C6.64021 10.7196 5.77816 11.7345 5.77816 13.7624C5.77816 14.9136 6.10002 15.9885 6.74185 16.987C7.38369 17.9854 8.55254 19.1985 10.2447 20.6208C12.4073 22.4377 13.8962 24.0891 14.7112 25.5713C15.5261 27.0554 15.9327 28.7959 15.9327 30.7947C15.9327 33.3991 15.2664 35.3979 13.9357 36.791C12.6031 38.1842 10.6682 38.8807 8.12904 38.8807C5.58993 38.8807 3.72466 38.1914 2.44099 36.8129L2.43911 36.8183Z" fill="#078193"/>
<path d="M18.8936 6.63293H26.509C29.0782 6.63293 31.0056 7.29859 32.2912 8.63171C33.5767 9.96483 34.2186 11.9181 34.2186 14.4916V17.6253C34.2186 20.1988 33.5767 22.1539 32.2912 23.4852C31.0056 24.8183 29.0782 25.484 26.509 25.484H24.064V38.4297H18.8936V6.63293ZM26.509 20.9426C27.356 20.9426 27.9903 20.7153 28.4138 20.2606C28.8373 19.8059 29.0481 19.0348 29.0481 17.9436V14.1734C29.0481 13.0839 28.8373 12.311 28.4138 11.8563C27.9903 11.4016 27.356 11.1743 26.509 11.1743H24.064V20.9408H26.509V20.9426Z" fill="#078193"/>
<path d="M37.0381 6.63293H51.1415V11.1761H42.2085V19.5804H49.3064V24.1236H42.2085V33.8901H51.1415V38.4333H37.0381V6.63293Z" fill="#078193"/>
<path d="M54.104 6.63293H68.2074V11.1761H59.2744V19.5804H66.3723V24.1236H59.2744V33.8901H68.2074V38.4333H54.104V6.63293Z" fill="#F7911E"/>
<path d="M71.1685 6.63293H79.0662C81.6355 6.63293 83.5628 7.29859 84.8484 8.63171C86.134 9.96483 86.7758 11.9181 86.7758 14.4916V30.5728C86.7758 33.1463 86.134 35.1014 84.8484 36.4327C83.5628 37.7658 81.6355 38.4315 79.0662 38.4315H71.1685V6.63293ZM78.9721 33.8883C79.8191 33.8883 80.4685 33.6464 80.924 33.1608C81.3776 32.677 81.6053 31.8895 81.6053 30.7983V14.2625C81.6053 13.1731 81.3776 12.3856 80.924 11.9C80.4685 11.4162 79.8191 11.1725 78.9721 11.1725H76.3389V33.8847H78.9721V33.8883Z" fill="#F7911E"/>
<path d="M94.1575 24.8929L87.9048 6.6311H93.4046L96.93 18.3055H97.0241L100.55 6.6311H105.579L99.3261 24.8929V38.4297H94.1556V24.8929H94.1575Z" fill="#F7911E"/>
<path d="M4.62084 53.3795H1.53965L0.971223 54.9308H0L2.55417 47.9979H3.61762L6.16049 54.9308H5.18739L4.61896 53.3795H4.62084ZM4.35733 52.6392L3.08119 49.1182L1.80504 52.6392H4.35921H4.35733Z" fill="#F7911E"/>
<path d="M8.19914 54.1907H10.6724V54.9309H7.27686V47.9597H8.19914V54.1907Z" fill="#F7911E"/>
<path d="M12.5771 54.1907H15.0503V54.9309H11.6548V47.9597H12.5771V54.1907Z" fill="#F7911E"/>
<path d="M23.6841 47.9578L21.384 52.2991V54.929H20.4618V52.2991L18.1504 47.9578H19.1743L20.9172 51.4898L22.6602 47.9578H23.6841Z" fill="#F7911E"/>
<path d="M26.0648 54.5454C25.5246 54.2416 25.0974 53.8179 24.7831 53.2741C24.4687 52.7303 24.3125 52.1192 24.3125 51.439C24.3125 50.7588 24.4687 50.1477 24.7831 49.6039C25.0974 49.0601 25.5246 48.6363 26.0648 48.3326C26.605 48.0289 27.2036 47.8779 27.8586 47.8779C28.5136 47.8779 29.1216 48.0289 29.6618 48.3326C30.202 48.6363 30.6273 49.0583 30.9379 49.5984C31.2485 50.1386 31.4047 50.7515 31.4047 51.439C31.4047 52.1265 31.2485 52.7394 30.9379 53.2795C30.6273 53.8197 30.202 54.2416 29.6618 54.5454C29.1216 54.8491 28.5192 55 27.8586 55C27.1979 55 26.605 54.8491 26.0648 54.5454ZM29.1912 53.8706C29.5865 53.6433 29.897 53.3195 30.1229 52.9012C30.3488 52.4811 30.4617 51.9937 30.4617 51.4408C30.4617 50.8879 30.3488 50.3914 30.1229 49.9749C29.897 49.5584 29.5865 49.2365 29.195 49.0092C28.8035 48.7818 28.3574 48.6691 27.8567 48.6691C27.356 48.6691 26.91 48.7818 26.5185 49.0092C26.127 49.2365 25.8183 49.5584 25.5905 49.9749C25.3647 50.3914 25.2517 50.8806 25.2517 51.4408C25.2517 52.001 25.3647 52.4811 25.5905 52.9012C25.8164 53.3214 26.127 53.6451 26.5222 53.8706C26.9175 54.098 27.3617 54.2107 27.8548 54.2107C28.348 54.2107 28.7922 54.098 29.1874 53.8706H29.1912Z" fill="#F7911E"/>
<path d="M33.5243 47.9578V52.3682C33.5243 52.9884 33.6787 53.4485 33.9855 53.7486C34.2923 54.0487 34.7195 54.1997 35.2673 54.1997C35.815 54.1997 36.231 54.0487 36.5396 53.7486C36.8464 53.4485 37.0008 52.9884 37.0008 52.3682V47.9578H37.9231V52.3591C37.9231 52.9393 37.8045 53.4285 37.5692 53.825C37.3321 54.2215 37.014 54.5161 36.6112 54.7107C36.2084 54.9035 35.7585 54.9999 35.2579 54.9999C34.7572 54.9999 34.3073 54.9035 33.9045 54.7107C33.5017 54.518 33.1855 54.2215 32.9521 53.825C32.7187 53.4285 32.6021 52.9393 32.6021 52.3591V47.9578H33.5243Z" fill="#F7911E"/>
<path d="M47.7219 54.9308H46.7996L43.0898 49.3782V54.9308H42.1675V47.9487H43.0898L46.7996 53.4904V47.9487H47.7219V54.9308Z" fill="#F7911E"/>
<path d="M50.2138 48.6981V51.0279H52.7887V51.7772H50.2138V54.1779H53.0917V54.9272H49.2915V47.9451H53.0917V48.6944H50.2138V48.6981Z" fill="#F7911E"/>
<path d="M55.4125 48.6981V51.0279H57.9874V51.7772H55.4125V54.1779H58.2904V54.9272H54.4902V47.9451H58.2904V48.6944H55.4125V48.6981Z" fill="#F7911E"/>
<path d="M63.8897 48.3834C64.4543 48.6671 64.8853 49.0727 65.1865 49.5983C65.4876 50.1257 65.6382 50.7459 65.6382 51.4589C65.6382 52.1718 65.4876 52.7902 65.1865 53.314C64.8853 53.8378 64.4524 54.2379 63.8897 54.5143C63.325 54.7908 62.6587 54.929 61.8889 54.929H59.6904V47.9578H61.8889C62.6587 47.9578 63.3269 48.0997 63.8897 48.3834ZM63.9762 53.4649C64.4562 52.9884 64.6952 52.3191 64.6952 51.4589C64.6952 50.5986 64.4543 49.9148 63.9706 49.4274C63.4869 48.9399 62.7942 48.698 61.8889 48.698H60.6127V54.1797H61.8889C62.8017 54.1797 63.4963 53.9414 63.9762 53.4649Z" fill="#F7911E"/>
<path d="M70.4814 47.9578V54.929H69.5591V47.9578H70.4814Z" fill="#078193"/>
<path d="M73.0411 54.7545C72.6722 54.5908 72.3842 54.3653 72.1753 54.0743C71.9664 53.7833 71.8572 53.4486 71.8516 53.0685H72.8341C72.868 53.3959 73.0054 53.6705 73.2444 53.8942C73.4834 54.1179 73.8335 54.2288 74.2928 54.2288C74.7521 54.2288 75.0777 54.1197 75.3318 53.9033C75.5859 53.6869 75.712 53.4086 75.712 53.0685C75.712 52.8011 75.6367 52.5847 75.4899 52.4192C75.3412 52.2519 75.1548 52.1264 74.9327 52.0391C74.7106 51.9518 74.4095 51.859 74.0312 51.759C73.5644 51.639 73.1917 51.5189 72.9113 51.3989C72.6308 51.2789 72.3918 51.0897 72.1922 50.8333C71.9927 50.5769 71.893 50.2313 71.893 49.7984C71.893 49.4183 71.9908 49.0819 72.1866 48.789C72.3823 48.4962 72.6572 48.2689 73.0129 48.1088C73.3686 47.9488 73.7752 47.8688 74.2344 47.8688C74.897 47.8688 75.4391 48.0325 75.8607 48.3598C76.2823 48.6872 76.5213 49.1201 76.5759 49.6602H75.5633C75.5294 49.3929 75.3882 49.1582 75.1379 48.9546C74.8876 48.7509 74.5563 48.649 74.1441 48.649C73.7583 48.649 73.4439 48.7472 73.2011 48.9436C72.9583 49.1401 72.836 49.4147 72.836 49.7693C72.836 50.0221 72.9094 50.2295 73.0543 50.3895C73.1992 50.5496 73.378 50.6714 73.5907 50.7551C73.8034 50.8387 74.1027 50.9333 74.4885 51.0406C74.9553 51.1679 75.3299 51.2916 75.6141 51.4153C75.8983 51.539 76.1411 51.7281 76.3444 51.9845C76.5477 52.241 76.6493 52.5902 76.6493 53.0303C76.6493 53.3704 76.559 53.6905 76.3764 53.9906C76.1938 54.2907 75.9228 54.5344 75.5652 54.7199C75.2076 54.9072 74.7841 55 74.2984 55C73.8128 55 73.4157 54.9181 73.0468 54.7545H73.0411Z" fill="#078193"/>
<path d="M86.149 47.9578V54.929H85.2267V51.7681H81.6298V54.929H80.7075V47.9578H81.6298V51.0187H85.2267V47.9578H86.149Z" fill="#078193"/>
<path d="M88.641 48.6981V51.0279H91.2159V51.7772H88.641V54.1779H91.5189V54.9272H87.7188V47.9451H91.5189V48.6944H88.641V48.6981Z" fill="#078193"/>
<path d="M96.6387 54.9309L94.956 52.0809H93.8417V54.9309H92.9194V47.9597H95.1988C95.7333 47.9597 96.1832 48.0507 96.5521 48.2307C96.921 48.4108 97.1958 48.6545 97.3784 48.96C97.561 49.2674 97.6513 49.6166 97.6513 50.0112C97.6513 50.4914 97.5102 50.9151 97.2316 51.2807C96.9511 51.6481 96.5314 51.8918 95.9705 52.0118L97.7435 54.9327H96.6387V54.9309ZM93.8417 51.3498H95.1988C95.6995 51.3498 96.074 51.228 96.3244 50.9842C96.5747 50.7405 96.6989 50.415 96.6989 50.0094C96.6989 49.6038 96.5747 49.2765 96.33 49.0491C96.0834 48.8218 95.707 48.709 95.2007 48.709H93.8436V51.3498H93.8417Z" fill="#078193"/>
<path d="M100.002 48.6981V51.0279H102.577V51.7772H100.002V54.1779H102.88V54.9272H99.0796V47.9451H102.88V48.6944H100.002V48.6981Z" fill="#078193"/>
</svg>
